<svg width="20" height="20" viewBox="0 0 20 20" fill="none" xmlns="http://www.w3.org/2000/svg">
<path d="M15.8333 3.33366H15V1.66699H13.3333V3.33366H6.66667V1.66699H5V3.33366H4.16667C3.24167 3.33366 2.50833 4.08366 2.50833 5.00033L2.5 16.667C2.5 17.5837 3.24167 18.3337 4.16667 18.3337H15.8333C16.75 18.3337 17.5 17.5837 17.5 16.667V5.00033C17.5 4.08366 16.75 3.33366 15.8333 3.33366ZM15.8333 16.667H4.16667V8.33366H15.8333V16.667ZM15.8333 6.66699H4.16667V5.00033H15.8333V6.66699ZM7.5 11.667H5.83333V10.0003H7.5V11.667ZM10.8333 11.667H9.16667V10.0003H10.8333V11.667ZM14.1667 11.667H12.5V10.0003H14.1667V11.667ZM7.5 15.0003H5.83333V13.3337H7.5V15.0003ZM10.8333 15.0003H9.16667V13.3337H10.8333V15.0003ZM14.1667 15.0003H12.5V13.3337H14.1667V15.0003Z" fill="#1F1E1E"/>
</svg>
