<svg width="20" height="20" viewBox="0 0 20 20" fill="none" xmlns="http://www.w3.org/2000/svg">
<path d="M9.99998 4.99992C10.9166 4.99992 11.6666 5.74992 11.6666 6.66659C11.6666 7.58325 10.9166 8.33325 9.99998 8.33325C9.08331 8.33325 8.33331 7.58325 8.33331 6.66659C8.33331 5.74992 9.08331 4.99992 9.99998 4.99992ZM9.99998 13.3333C12.25 13.3333 14.8333 14.4083 15 14.9999H4.99998C5.19165 14.3999 7.75831 13.3333 9.99998 13.3333ZM9.99998 3.33325C8.15831 3.33325 6.66665 4.82492 6.66665 6.66659C6.66665 8.50825 8.15831 9.99992 9.99998 9.99992C11.8416 9.99992 13.3333 8.50825 13.3333 6.66659C13.3333 4.82492 11.8416 3.33325 9.99998 3.33325ZM9.99998 11.6666C7.77498 11.6666 3.33331 12.7833 3.33331 14.9999V16.6666H16.6666V14.9999C16.6666 12.7833 12.225 11.6666 9.99998 11.6666Z" fill="#1F1E1E"/>
</svg>
