<svg width="20" height="20" viewBox="0 0 20 20" fill="none" xmlns="http://www.w3.org/2000/svg">
<path d="M9.99992 4.99967C10.9166 4.99967 11.6666 5.74967 11.6666 6.66634C11.6666 7.58301 10.9166 8.33301 9.99992 8.33301C9.08325 8.33301 8.33325 7.58301 8.33325 6.66634C8.33325 5.74967 9.08325 4.99967 9.99992 4.99967ZM9.99992 13.333C12.2499 13.333 14.8333 14.408 14.9999 14.9997H4.99992C5.19159 14.3997 7.75825 13.333 9.99992 13.333ZM9.99992 3.33301C8.15825 3.33301 6.66659 4.82467 6.66659 6.66634C6.66659 8.50801 8.15825 9.99967 9.99992 9.99967C11.8416 9.99967 13.3333 8.50801 13.3333 6.66634C13.3333 4.82467 11.8416 3.33301 9.99992 3.33301ZM9.99992 11.6663C7.77492 11.6663 3.33325 12.783 3.33325 14.9997V16.6663H16.6666V14.9997C16.6666 12.783 12.2249 11.6663 9.99992 11.6663Z" fill="#1F1E1E"/>
</svg>
