<svg width="20" height="20" viewBox="0 0 20 20" fill="none" xmlns="http://www.w3.org/2000/svg">
<path d="M15.8333 3.33317H15V1.6665H13.3333V3.33317H6.66667V1.6665H5V3.33317H4.16667C3.24167 3.33317 2.50833 4.08317 2.50833 4.99984L2.5 16.6665C2.5 17.5832 3.24167 18.3332 4.16667 18.3332H15.8333C16.75 18.3332 17.5 17.5832 17.5 16.6665V4.99984C17.5 4.08317 16.75 3.33317 15.8333 3.33317ZM15.8333 16.6665H4.16667V8.33317H15.8333V16.6665ZM15.8333 6.6665H4.16667V4.99984H15.8333V6.6665ZM7.5 11.6665H5.83333V9.99984H7.5V11.6665ZM10.8333 11.6665H9.16667V9.99984H10.8333V11.6665ZM14.1667 11.6665H12.5V9.99984H14.1667V11.6665ZM7.5 14.9998H5.83333V13.3332H7.5V14.9998ZM10.8333 14.9998H9.16667V13.3332H10.8333V14.9998ZM14.1667 14.9998H12.5V13.3332H14.1667V14.9998Z" fill="#562699"/>
</svg>
