<svg width="130" height="63" viewBox="0 0 130 63" fill="none" xmlns="http://www.w3.org/2000/svg">
<path d="M128.73 0V33.84H116.562V0H128.73ZM110.154 0.720004V10.728H83.5138V21.384H99.4978C105.042 21.384 110.442 20.592 113.682 19.224V29.232C110.514 30.6 105.114 31.392 99.3538 31.392H71.2738V0.720004H110.154ZM101.226 34.704C116.922 34.704 129.306 38.232 129.306 48.456C129.306 58.68 116.922 62.208 101.226 62.208C85.5298 62.208 73.1458 58.68 73.1458 48.456C73.1458 38.232 85.5298 34.704 101.226 34.704ZM101.226 44.424C92.9458 44.424 86.2498 45.576 86.2498 48.456C86.2498 51.408 92.9458 52.488 101.226 52.488C109.506 52.488 116.202 51.408 116.202 48.456C116.202 45.576 109.506 44.424 101.226 44.424Z" fill="#562699"/>
<path d="M47.448 0H59.616V61.488H47.448V0ZM21.312 33.12C10.224 33.12 2.448 26.424 2.448 16.776C2.448 7.2 10.224 0.432003 21.312 0.432003C32.328 0.432003 40.104 7.2 40.104 16.776C40.104 26.424 32.328 33.12 21.312 33.12ZM21.312 10.152C16.92 10.152 14.04 13.032 14.04 16.776C14.04 20.52 16.92 23.4 21.312 23.4C25.704 23.4 28.512 20.52 28.512 16.776C28.512 13.032 25.704 10.152 21.312 10.152ZM0 36.504H28.008C33.696 36.504 40.104 35.928 43.92 34.272V45.216C40.104 46.872 33.912 47.448 27.792 47.448H27.288V61.488H15.12V47.448H0V36.504Z" fill="#562699"/>
</svg>
