<svg width="20" height="20" viewBox="0 0 20 20" fill="none" xmlns="http://www.w3.org/2000/svg">
<path d="M16.1583 9.375C16.2167 9.71667 16.25 10.0583 16.25 10.4167C16.25 14.0917 13.2583 17.0833 9.58333 17.0833C5.90833 17.0833 2.91667 14.0917 2.91667 10.4167C2.91667 10.375 2.925 10.3333 2.91667 10.3C5.08333 9.48333 6.825 7.80833 7.7 5.675C10.5167 9.125 14.3417 8.78333 15.1917 8.68333L14.45 7.075C14.3417 7.08333 10.6 7.39167 8.46667 3.85833C9.30833 3.725 9.89167 3.73333 10.625 3.85C12.725 2.89167 12.2333 3.10833 12.925 2.8C11.9 2.33333 10.775 2.08333 9.58333 2.08333C4.98333 2.08333 1.25 5.81667 1.25 10.4167C1.25 15.0167 4.98333 18.75 9.58333 18.75C14.1833 18.75 17.9167 15.0167 17.9167 10.4167C17.9167 9.225 17.6667 8.1 17.2167 7.075L16.1583 9.375ZM6.31667 4.60833C5.79167 6.18333 4.69167 7.5 3.26667 8.30833C3.79167 6.73333 4.89167 5.41667 6.31667 4.60833Z" fill="#1F1E1E"/>
<path d="M12.0833 12.2917C12.6586 12.2917 13.125 11.8253 13.125 11.25C13.125 10.6747 12.6586 10.2083 12.0833 10.2083C11.508 10.2083 11.0417 10.6747 11.0417 11.25C11.0417 11.8253 11.508 12.2917 12.0833 12.2917Z" fill="#1F1E1E"/>
<path d="M7.08333 12.2917C7.65863 12.2917 8.125 11.8253 8.125 11.25C8.125 10.6747 7.65863 10.2083 7.08333 10.2083C6.50804 10.2083 6.04167 10.6747 6.04167 11.25C6.04167 11.8253 6.50804 12.2917 7.08333 12.2917Z" fill="#1F1E1E"/>
<path d="M18.75 4.16667L16.75 3.25L15.8333 1.25L14.9167 3.25L12.9167 4.16667L14.9167 5.08333L15.8333 7.08333L16.75 5.08333L18.75 4.16667Z" fill="#1F1E1E"/>
</svg>
