<svg width="20" height="20" viewBox="0 0 20 20" fill="none" xmlns="http://www.w3.org/2000/svg">
<path d="M10 4.99967C10.9167 4.99967 11.6667 5.74967 11.6667 6.66634C11.6667 7.58301 10.9167 8.33301 10 8.33301C9.08334 8.33301 8.33334 7.58301 8.33334 6.66634C8.33334 5.74967 9.08334 4.99967 10 4.99967ZM10 13.333C12.25 13.333 14.8333 14.408 15 14.9997H5.00001C5.19168 14.3997 7.75834 13.333 10 13.333ZM10 3.33301C8.15834 3.33301 6.66668 4.82467 6.66668 6.66634C6.66668 8.50801 8.15834 9.99967 10 9.99967C11.8417 9.99967 13.3333 8.50801 13.3333 6.66634C13.3333 4.82467 11.8417 3.33301 10 3.33301ZM10 11.6663C7.77501 11.6663 3.33334 12.783 3.33334 14.9997V16.6663H16.6667V14.9997C16.6667 12.783 12.225 11.6663 10 11.6663Z" fill="#562699"/>
</svg>
